<?xml version="1.0" encoding="UTF-8" standalone="no"?>
<!DOCTYPE svg PUBLIC "-//W3C//DTD SVG 1.1//EN" "http://www.w3.org/Graphics/SVG/1.1/DTD/svg11.dtd">
<svg width="20" height="20" viewBox="0 0 417 417" version="1.1" xmlns="http://www.w3.org/2000/svg">
    <path fill="black" d="M328.704,280.093c-0,12.268 -10.07,23.148 -23.148,23.148c-12.732,-0 -23.149,-10.417 -23.149,-23.148l0,-69.445c0,-12.268 10.186,-23.148 23.149,-23.148c12.847,0 23.148,10.417 23.148,23.148l-0,69.445Zm46.296,-0c0,34.375 -25,62.847 -57.87,68.402l-0,24.19l23.148,0c6.481,0 11.574,5.209 11.574,11.574c-0,6.366 -5.093,11.574 -11.574,11.574l-69.445,0c-6.365,0 -11.574,-5.208 -11.574,-11.574c0,-6.365 5.209,-11.574 11.574,-11.574l23.148,0l0,-24.19c-32.754,-5.555 -57.87,-34.027 -57.87,-68.402c0,-6.366 5.208,-11.574 11.574,-11.574c6.482,-0 11.574,5.208 11.574,11.574c0,25.578 20.834,46.296 46.297,46.296c25.578,-0 46.296,-20.718 46.296,-46.296c-0,-6.366 5.208,-11.574 11.574,-11.574c6.481,-0 11.574,5.208 11.574,11.574Zm-20.833,-259.26l-0,41.667l-312.5,0l-0,-41.667l312.5,0Zm-0,83.334l-0,41.666l-312.5,0l-0,-41.666l312.5,-0Zm-145.834,83.333l0,41.667l-166.666,-0l-0,-41.667l166.666,0Zm0,83.333l0,41.667l-166.666,0l-0,-41.667l166.666,0Zm0,83.334l0,41.666l-166.666,0l-0,-41.666l166.666,-0Z"/>
</svg>